<svg width="1437" height="1437" viewBox="0 0 1437 1437" fill="none"
    xmlns="http://www.w3.org/2000/svg">
    <path stroke="white" stroke-width="0" id="Ellipse 5 (Stroke)" fill-rule="evenodd"
        clip-rule="evenodd"
        d="M1420.16 873.853C1427.26 841.636 1432.2 808.608 1434.82 774.929C1436.26 756.309 1437 737.491 1437 718.5C1437 699.509 1436.26 680.691 1434.82 662.071C1432.2 628.392 1427.26 595.364 1420.16 563.147C1412.88 530.106 1403.32 497.919 1391.66 466.757C1295.75 487.821 1227.6 576.876 1235.42 677.562C1236.46 691.033 1237 704.684 1237 718.5C1237 732.316 1236.46 745.967 1235.42 759.438C1227.6 860.124 1295.75 949.179 1391.66 970.243C1403.32 939.081 1412.88 906.894 1420.16 873.853ZM1372.47 1016.52C1289.72 963.562 1178.49 978.378 1112.84 1055.17C1095.15 1075.87 1075.87 1095.15 1055.17 1112.84C978.378 1178.49 963.562 1289.72 1016.52 1372.47C1047.16 1358.48 1076.65 1342.41 1104.8 1324.42C1132.98 1306.42 1159.82 1286.51 1185.13 1264.86C1213.74 1240.41 1240.41 1213.74 1264.87 1185.13C1286.51 1159.82 1306.42 1132.98 1324.42 1104.8C1342.41 1076.65 1358.48 1047.16 1372.47 1016.52ZM970.243 1391.66C949.179 1295.75 860.124 1227.6 759.438 1235.42C745.967 1236.46 732.316 1237 718.5 1237C704.684 1237 691.033 1236.46 677.562 1235.42C576.876 1227.6 487.821 1295.75 466.757 1391.66C497.919 1403.32 530.106 1412.88 563.147 1420.16C595.364 1427.26 628.392 1432.2 662.071 1434.82C680.691 1436.26 699.509 1437 718.5 1437C737.491 1437 756.309 1436.26 774.929 1434.82C808.608 1432.2 841.636 1427.26 873.853 1420.16C906.894 1412.88 939.081 1403.32 970.243 1391.66ZM420.48 1372.47C473.438 1289.72 458.622 1178.49 381.826 1112.84C361.134 1095.15 341.845 1075.87 324.156 1055.17C258.505 978.378 147.28 963.562 64.5286 1016.52C78.515 1047.16 94.5916 1076.65 112.576 1104.8C130.578 1132.98 150.492 1159.82 172.135 1185.13C196.592 1213.74 223.257 1240.41 251.866 1264.86C277.183 1286.51 304.022 1306.42 332.2 1324.42C360.351 1342.41 389.839 1358.48 420.48 1372.47ZM45.3374 970.243C141.246 949.179 209.405 860.124 201.582 759.438C200.536 745.967 200 732.316 200 718.5C200 704.684 200.536 691.033 201.582 677.562C209.405 576.876 141.246 487.821 45.3375 466.757C33.6788 497.919 24.1219 530.106 16.8393 563.147C9.73842 595.364 4.79975 628.392 2.18327 662.071C0.736763 680.691 0 699.509 0 718.5C0 737.491 0.736762 756.309 2.18326 774.929C4.79974 808.608 9.73841 841.636 16.8393 873.853C24.1219 906.894 33.6788 939.081 45.3374 970.243ZM64.5286 420.48C147.28 473.438 258.505 458.622 324.156 381.826C341.845 361.134 361.134 341.845 381.826 324.156C458.622 258.505 473.438 147.28 420.48 64.5287C389.838 78.515 360.351 94.5916 332.2 112.576C304.022 130.578 277.183 150.492 251.866 172.135C223.257 196.592 196.592 223.257 172.135 251.866C150.492 277.183 130.578 304.022 112.576 332.2C94.5915 360.351 78.515 389.839 64.5286 420.48ZM466.757 45.3375C487.821 141.246 576.876 209.405 677.562 201.582C691.033 200.536 704.684 200 718.5 200C732.316 200 745.967 200.536 759.438 201.582C860.124 209.405 949.179 141.246 970.243 45.3375C939.081 33.6788 906.894 24.1219 873.853 16.8393C841.636 9.73842 808.608 4.79975 774.929 2.18327C756.309 0.736763 737.491 0 718.5 0C699.509 0 680.691 0.736762 662.071 2.18326C628.392 4.79974 595.364 9.73841 563.147 16.8393C530.106 24.1219 497.919 33.6788 466.757 45.3375ZM1016.52 64.5286C963.562 147.28 978.378 258.505 1055.17 324.156C1075.87 341.845 1095.15 361.134 1112.84 381.826C1178.49 458.622 1289.72 473.438 1372.47 420.48C1358.48 389.838 1342.41 360.351 1324.42 332.2C1306.42 304.022 1286.51 277.183 1264.86 251.866C1240.41 223.257 1213.74 196.592 1185.13 172.135C1159.82 150.492 1132.98 130.578 1104.8 112.576C1076.65 94.5915 1047.16 78.515 1016.52 64.5286Z"
        fill="#000080" />
    <path stroke="white" stroke-width="0" id="Ellipse 6 (Stroke)" fill-rule="evenodd"
        clip-rule="evenodd"
        d="M1039.46 881.288C1050.74 859.172 1059.8 835.733 1066.34 811.265C1074.27 781.597 1078.5 750.417 1078.5 718.25C1078.5 686.083 1074.27 654.903 1066.34 625.235C1059.8 600.767 1050.74 577.328 1039.46 555.212C1027.89 532.527 1013.97 511.235 998.039 491.654C936.349 523.121 902.826 594.374 921.43 663.971C926.013 681.117 928.5 699.278 928.5 718.25C928.5 737.222 926.013 755.383 921.43 772.529C902.826 842.126 936.349 913.379 998.039 944.846C1013.97 925.265 1027.89 903.973 1039.46 881.288ZM945.846 997.039C914.379 935.349 843.126 901.826 773.529 920.43C756.383 925.013 738.222 927.5 719.25 927.5C700.278 927.5 682.117 925.013 664.971 920.43C595.374 901.826 524.121 935.349 492.654 997.039C512.235 1012.97 533.527 1026.89 556.212 1038.46C578.328 1049.74 601.767 1058.8 626.235 1065.34C655.903 1073.27 687.083 1077.5 719.25 1077.5C751.417 1077.5 782.597 1073.27 812.265 1065.34C836.733 1058.8 860.172 1049.74 882.288 1038.46C904.973 1026.89 926.265 1012.97 945.846 997.039ZM440.461 944.846C502.151 913.379 535.674 842.126 517.07 772.529C512.487 755.383 510 737.222 510 718.25C510 699.278 512.487 681.117 517.07 663.971C535.674 594.374 502.151 523.121 440.461 491.654C424.527 511.235 410.614 532.527 399.04 555.212C387.758 577.328 378.698 600.767 372.158 625.235C364.228 654.903 360 686.083 360 718.25C360 750.417 364.228 781.597 372.158 811.265C378.698 835.733 387.758 859.172 399.04 881.288C410.614 903.973 424.527 925.265 440.461 944.846ZM492.654 439.461C524.121 501.151 595.374 534.674 664.971 516.07C682.117 511.487 700.278 509 719.25 509C738.222 509 756.383 511.487 773.529 516.07C843.126 534.674 914.379 501.151 945.846 439.461C926.265 423.527 904.973 409.614 882.288 398.04C860.172 386.758 836.733 377.698 812.265 371.158C782.597 363.228 751.417 359 719.25 359C687.083 359 655.903 363.228 626.235 371.158C601.767 377.698 578.328 386.758 556.212 398.04C533.527 409.614 512.235 423.527 492.654 439.461Z"
        fill="#000080" />
</svg>